# xmcd
#
# Track frame offsets:
#	150
#	19328
#	36829
#	89480
#	130403
#	167813
#	192467
#	223970
#
# Disc length: 3514 seconds
#
# Revision: 0
# Processed by: cddbd v1.5.2PL0 Copyright (c) Steve Scherf et al.
# Submitted via: audiograbber 1.83.01
#
DISCID=790db808
DTITLE=Grateful Dead - 93-03-11 Rosemont Horizon, Rosemont IL
DYEAR=1900
DGENRE=
TTITLE0=Help On The Way
TTITLE1=Slipknot!
TTITLE2=Franklin's Tower
TTITLE3=Little Red Rooster
TTITLE4=Althea
TTITLE5=When I Paint My Masterpiece
TTITLE6=So Many Roads
TTITLE7=The Music Never Stopped
EXTD=
EXTT0=
EXTT1=
EXTT2=
EXTT3=
EXTT4=
EXTT5=
EXTT6=
EXTT7=
PLAYORDER=
